<?xml version="1.0" encoding="utf-8"?>
<!-- Generator: Adobe Illustrator 23.0.1, SVG Export Plug-In . SVG Version: 6.00 Build 0)  -->
<svg version="1.1" id="marker-15" xmlns="http://www.w3.org/2000/svg" x="0px" y="0px"
     viewBox="0 0 15 15" style="enable-background:new 0 0 15 15;" xml:space="preserve">
<path d="M7.5,0C5.1,0,2.2,1.5,2.2,5.3c0,2.6,4.1,8.2,5.3,9.7c1.1-1.5,5.3-7,5.3-9.7C12.8,1.5,9.9,0,7.5,0z M7.2,8H4.4
	c0-0.6,0-1.4,0-2.3c0-0.9,0-1.6,0-2.1h1c0,0.5,0,1.2,0,2.1c0,0.7,0,1.2,0,1.6c0.6,0,1.3,0,2,0L7.2,8z M10.3,5.8
	C9.8,7.1,9.5,7.8,9.5,8H8.6c0-0.2-0.2-0.9-0.7-2.2C7.4,4.5,7.1,3.7,7.1,3.6h1.1c0,0.2,0.1,0.8,0.5,1.8c0.3,1,0.5,1.6,0.5,1.7h0.1
	c0-0.1,0.2-0.7,0.5-1.7c0.3-1,0.5-1.6,0.5-1.8h1C11.1,3.8,10.8,4.5,10.3,5.8z"/>
</svg>
