<svg xmlns="http://www.w3.org/2000/svg" width="75" height="75" viewBox="0 0 131 133">
    <defs>
        <style>
            .cls-1 {
            fill: #FFC107;
            }

            .cls-2 {
            fill: #fff;
            }

            .cls-3 {
            filter: url(#Ellipse_38);
            }
        </style>
        <filter id="Ellipse_38" x="0" y="0" width="131" height="133" filterUnits="userSpaceOnUse">
            <feOffset dy="3" input="SourceAlpha"/>
            <feGaussianBlur stdDeviation="3" result="blur"/>
            <feFlood flood-opacity="0.161"/>
            <feComposite operator="in" in2="blur"/>
            <feComposite in="SourceGraphic"/>
        </filter>
    </defs>
    <g id="Group_41" data-name="Group 41" transform="translate(-1673 -879)">
        <g class="cls-3" transform="matrix(1, 0, 0, 1, 1673, 879)">
            <ellipse id="Ellipse_38-2" data-name="Ellipse 38" class="cls-1" cx="56.5" cy="57.5" rx="56.5" ry="57.5"
                     transform="translate(9 6)"/>
        </g>
        <path id="Path_65" data-name="Path 65" class="cls-2"
              d="M55.679,28.947c1.171-4.23,1.171-11.064-4.708-14.577a9.753,9.753,0,0,0-1.888-7.289c-1.649-1.888-3.991-2.581-7.05-2.342C40.862,2.851,38.975.509,35.916.031c-2.342-.239-4.947.932-7.289,3.3C26.285.748,23.919-.208,21.338.031a8.632,8.632,0,0,0-6.118,4.708,8.682,8.682,0,0,0-7.05,2.342C6.283,9.208,6.044,12.267,6.283,14.37.4,17.906.4,24.717,1.575,28.947c-1.888,4.469-2.127,8.46-.478,11.3a11.032,11.032,0,0,0,4.23,3.991c-.239,3.537.478,6.118,2.342,8.245,2.581,2.82,6.6,3.3,8.7,3.3,2.127,2.342,4.469,3.537,6.835,3.537h.478a8.183,8.183,0,0,0,4.947-2.342,8.054,8.054,0,0,0,4.947,2.342h.478c2.342,0,4.708-1.171,6.835-3.537,2.127,0,6.118-.239,8.7-3.3,1.888-2.127,2.581-4.708,2.342-8.245a7.774,7.774,0,0,0,4.23-3.991C57.805,37.191,57.805,33.416,55.679,28.947Zm-3.752,8.938a4.1,4.1,0,0,1-.932,1.171c-.932-2.342-3.059-5.186-8.006-6.835a2.607,2.607,0,0,0-1.649,4.947C46.5,38.84,46.5,42.138,46.5,42.592v.478c.478,2.82.239,4.708-.932,5.879C43.921,50.6,40.623,50.6,39.691,50.6a2.225,2.225,0,0,0-2.342.932c-.932,1.171-2.342,2.82-3.776,2.581-1.171,0-2.127-1.171-2.82-1.888,0-.105-2.385-2.753-4.469-.191a4.918,4.918,0,0,1-2.624,1.811,1.932,1.932,0,0,1-.435.053,3.257,3.257,0,0,1-2.581-1.41c1.171-2.581,2.82-7.289.239-12.474a2.423,2.423,0,0,0-4.23,2.366c1.649,3.3.478,6.357-.239,8.006a7,7,0,0,1-4.947-1.649c-1.171-1.171-1.41-3.3-.932-5.879a1.818,1.818,0,0,0-.478-1.888,2.341,2.341,0,0,0-1.649-.932,5.16,5.16,0,0,1-3.059-2.127c-.932-1.649-.478-4.23,1.171-7.767a2.554,2.554,0,0,0,0-1.888c-.239-.717-1.888-5.879,1.171-8.7A11.629,11.629,0,0,0,18.28,25.912h.239a2.273,2.273,0,0,0,2.342-2.581,2.406,2.406,0,0,0-2.581-2.342,6.7,6.7,0,0,1-7.05-5.64,8.787,8.787,0,0,1-.215-1.974,4.51,4.51,0,0,1,.693-2.734c.932-1.171,3.059-.932,4.469-.717A2.563,2.563,0,0,0,19,8.276c.239-.717,1.649-3.059,3.059-3.3.932-.239,2.581.932,4.23,3.059,1.3,2.2,3.207,2.347,4.469.215,1.649-2.127,3.059-3.3,4.23-3.059,1.41.239,2.581,2.342,3.059,3.3a2.869,2.869,0,0,0,2.82,1.649c1.41-.478,3.537-.717,4.469.239a4.189,4.189,0,0,1,.717,2.581,14.254,14.254,0,0,0-4.947.932,12.392,12.392,0,0,0-5.64,7.05A2.23,2.23,0,0,0,37.111,24c.239,0,.478.239.717.239a2.323,2.323,0,0,0,2.342-1.649c1.888-5.4,5.64-4.947,6.835-4.469,5.64,2.342,3.537,9.415,3.3,10.109a2.575,2.575,0,0,0,0,1.888C52.381,33.416,52.859,36.236,51.927,37.884Z"
              transform="translate(1710.321 912.404)"/>
    </g>
</svg>
