<?xml version="1.0" encoding="utf-8"?>
<!-- Generator: Adobe Illustrator 23.0.0, SVG Export Plug-In . SVG Version: 6.00 Build 0)  -->
<svg version="1.1" id="Calque_1" xmlns="http://www.w3.org/2000/svg" x="0px" y="0px"
     viewBox="0 0 75 75" style="enable-background:new 0 0 75 75;" xml:space="preserve">
<style type="text/css">
	.st0{fill:#048A54;}
	.st1{fill:none;}
	.st2{fill:#FFFFFF;}
</style>
    <g transform="matrix(1, 0, 0, 1, 1673, 879)">
	<ellipse id="Ellipse_38-2" class="st0" cx="-1635.4" cy="-841.8" rx="31.9" ry="32.4"/>
</g>
    <path class="st1" d="M298.2,31.4h-42.7c-4.7,0-8.5,3.8-8.5,8.5c0,4.7,3.8,8.5,8.5,8.5h42.7c4.7,0,8.5-3.8,8.5-8.5
	C306.7,35.2,302.9,31.4,298.2,31.4z"/>
    <path class="st1" d="M289.7,22.9c4.7,0,8.5-3.8,8.5-8.5c0-4.7-3.8-8.5-8.5-8.5H247c-4.7,0-8.5,3.8-8.5,8.5c0,4.7,3.8,8.5,8.5,8.5
	H289.7z"/>
    <path class="st1" d="M155.8-70.6c-2.1-0.7-4.5-0.6-6.5,0.5c-2,1-3.6,2.8-4.3,4.9C135-35,139.3-2.9,144.8,24.5c0.6,3,2.8,5.4,5.6,6.4
	c2.9,1,6.1,0.3,8.4-1.7s3.3-5.1,2.7-8.1c-5.1-25.2-9.1-54.6-0.3-81C162.7-64.2,160.3-69.1,155.8-70.6z"/>
    <path class="st1" d="M170.2-88.1c0,4.7-3.8,8.5-8.5,8.5c-4.7,0-8.5-3.8-8.5-8.5c0-4.7,3.8-8.5,8.5-8.5
	C166.4-96.6,170.2-92.8,170.2-88.1z"/>
    <path class="st2" d="M56.4,37.4h-1.4c-0.1-1-0.3-2-0.5-3c-0.9-3.6-2.9-6.9-5.7-9.5c-2.8-2.3-5.9-3.3-8.8-2.6c-0.1,0-0.1,0-0.2,0.1
	l0,0l0,0l0,0l0,0c-2.7,0.7-4.8,2.7-6,5.4v-8.1c0-1-0.9-1.8-2-1.8c-1.1,0-1.9,0.8-1.9,1.8v9.2h-7.8v-9.2c0-1-0.9-1.8-1.9-1.8
	c-1.1,0-2,0.8-2,1.8v17.7c0,0.1,0,0.2,0.1,0.4c0,0.1-0.1,0.2-0.1,0.3c0,0.3,0.3,0.6,0.7,0.6h14.1c0.1,0.2,0.1,0.5,0.2,0.7
	c0.9,3.7,2.9,7,5.9,9.6l-1.3,1.6c-0.6,0.7-0.7,1.7-0.3,2.6c0.4,0.8,1.3,1.4,2.3,1.4h12.2c1,0,1.9-0.5,2.3-1.4
	c0.4-0.8,0.3-1.8-0.3-2.6l-1.7-2.1c2.1-2.5,3.1-6,2.9-9.9h1.3c0.4,0,0.7-0.3,0.7-0.6C57,37.7,56.7,37.4,56.4,37.4z M29.7,37.4h-7.8
	v-4.9h7.8V37.4z M32.3,33.3c0,0.7,0,1.4,0,2v2.1H31v-4.9c0-0.7-0.6-1.2-1.3-1.2h-7.8c-0.7,0-1.3,0.5-1.3,1.2v4.9h-1.3V19.7
	c0-0.3,0.3-0.6,0.7-0.6c0.4,0,0.6,0.3,0.6,0.6v9.2c0,0.7,0.6,1.2,1.3,1.2h7.8c0.7,0,1.3-0.5,1.3-1.2v-9.2c0-0.3,0.3-0.6,0.6-0.6
	c0.4,0,0.7,0.3,0.7,0.6V33.3z M34.2,39.1c-0.3-1.3-0.5-2.6-0.6-4v-1.4c0.1-3.6,1.4-6.7,3.5-8.6c-1.2,2.9-1.2,7.8,0.2,13.2
	c0.7,3,2,5.9,3.6,8.6c0.2,0.4,0.5,0.7,0.7,1.1c0.3,0.4,0.6,0.8,1,1.2c-0.7-0.1-1.3-0.2-1.9-0.4c-0.2-0.1-0.4-0.3-0.7-0.5l-0.2-0.1
	C37.2,46.1,35.2,42.8,34.2,39.1z M52.8,51.3c0.3,0.4,0.4,0.9,0.1,1.3c-0.2,0.4-0.7,0.7-1.2,0.7H39.5c-0.5,0-0.9-0.3-1.2-0.7
	c-0.2-0.4-0.2-0.9,0.1-1.3l1.3-1.5c0.2,0.1,0.3,0.1,0.5,0.2c1.3,0.4,2.7,0.6,4.1,0.6c0.4,0,0.8,0,1.3,0c1.1,0,2.2-0.1,3.3-0.2
	c0.5-0.1,0.9-0.1,1.2-0.2l0,0c0.5-0.1,0.9-0.2,1.4-0.4L52.8,51.3z M50.9,47.9c-0.1,0.1-0.1,0.1-0.2,0.2c-0.2,0.2-0.4,0.4-0.6,0.6
	c0.1-0.2,0.2-0.4,0.2-0.7c0.1-0.3,0.2-0.6,0.2-0.9c0.6-2.6,0.5-6.1-0.3-9.7h1.4c0.4,0,0.6-0.3,0.6-0.6c0-0.3-0.3-0.6-0.6-0.6h-3.3
	c-0.4,0-0.6,0.3-0.6,0.6c0,0.3,0.3,0.6,0.6,0.6h0.5c0.7,3.6,0.9,7,0.3,9.5c-0.1,0.3-0.1,0.5-0.2,0.8c-0.2,0.6-0.4,1.1-0.7,1.6
	c-1.3,0.1-2.6,0.2-3.8,0.1c-0.7-0.6-1.4-1.3-1.9-2c-0.2-0.3-0.4-0.6-0.7-1c-1.6-2.6-2.7-5.4-3.4-8.3c-2-7.8-0.9-13.8,1.5-14.5
	c0,0,0.1,0,0.1,0c2-0.4,4.7,2.5,6.8,7.2h-0.4c-0.4,0-0.6,0.3-0.6,0.6c0,0.3,0.3,0.6,0.6,0.6h3.3c0.4,0,0.7-0.3,0.7-0.6
	c0-0.3-0.3-0.6-0.7-0.6h-1.5c-1.4-3.2-3-5.7-4.7-7.1c1.5,0.4,2.9,1.2,4.1,2.2c2.7,2.4,4.5,5.5,5.3,8.9
	C54.5,39.8,53.6,44.9,50.9,47.9z"/>
    <path class="st2" d="M51.2,34.3h-3.3c-0.4,0-0.7,0.3-0.7,0.6c0,0.3,0.3,0.6,0.7,0.6h3.3c0.4,0,0.7-0.3,0.7-0.6
	C51.8,34.6,51.5,34.3,51.2,34.3z"/>
    <path class="st2" d="M50.5,33.7c0.4,0,0.6-0.3,0.6-0.6c0-0.3-0.3-0.6-0.6-0.6h-3.3c-0.4,0-0.7,0.3-0.7,0.6c0,0.3,0.3,0.6,0.7,0.6
	H50.5z"/>
    <path class="st2" d="M40.3,27c-0.2-0.1-0.3,0-0.5,0c-0.2,0.1-0.3,0.2-0.3,0.4c-0.8,2.2-0.4,4.5,0,6.4c0,0.2,0.2,0.4,0.4,0.5
	c0.2,0.1,0.5,0,0.6-0.1c0.2-0.1,0.3-0.4,0.2-0.6c-0.4-1.8-0.7-3.9,0-5.8C40.8,27.5,40.6,27.1,40.3,27z"/>
    <path class="st2" d="M41.4,25.8c0,0.3-0.3,0.6-0.6,0.6c-0.4,0-0.7-0.3-0.7-0.6c0-0.3,0.3-0.6,0.7-0.6C41.1,25.2,41.4,25.4,41.4,25.8
	z"/>
</svg>
