<?xml version="1.0" encoding="utf-8"?>
<!-- Generator: Adobe Illustrator 23.0.1, SVG Export Plug-In . SVG Version: 6.00 Build 0)  -->
<svg version="1.1" id="Layer_1" xmlns="http://www.w3.org/2000/svg" x="0px" y="0px"
     viewBox="0 0 200 300" style="enable-background:new 0 0 200 300;" xml:space="preserve">
<style type="text/css">
	.st0{fill:#63BDA4;}
	.st1{fill:#B1DBD8;}
	.st2{fill:#FFFFFF;}
	.st3{fill:#F2F2F2;}
	.st4{fill:#E66551;}
	.st5{fill:#B62727;}
	.st6{fill:#EE765F;}
	.st7{fill:#242D45;}
	.st8{fill:#004D40;}
	.st9{fill:#31B39F;}
</style>
    <g>
	<path class="st0" d="M125,134.7c-0.7-16.5-10.4-7.1-20.6-2.3c-4.8,2.2-3.7,8.6-3.8,13.8c0,5.2,0.9,53.2,0.8,62.9
		c-0.2,21.9,14.8,15.6,15.8,9.5C119.7,203.1,125.4,145.4,125,134.7z"/>
        <path class="st0" d="M101.7,207.3c0,10.4-2.1,18.1-2.1,27.9c-0.1,20.1,3.7,50.8,9.3,50.8c2.1,0,7.3-61.4,9.2-73
		C119.9,201.2,101.7,207.3,101.7,207.3z"/>
        <path class="st0" d="M103.4,148.7c0.2-17.8-11.8-14.2-22.4-23.4c-5-4.4-3.6,6.3-4,18.6c-0.2,5.2-0.4,55.5-0.5,65.2
		c-0.2,21.9,14.8,15.6,15.8,9.5C94.9,203.1,103.3,159.4,103.4,148.7z"/>
        <path class="st0" d="M76.6,207.3c0,10.4-1.9,17-1.9,26.8c-0.1,16.1,4.7,52.6,10,54.4c2,0.7,6.3-60.7,8.2-72.2
		C94.7,204.4,76.6,207.3,76.6,207.3z"/>
        <path class="st1" d="M131.8,168.5c0,6.3-31.4,12.4-63.3,12.4v-10.5c0-19.6,1.3-38.2,3.6-54.9c1.8-13.4,4.3-25.5,7.3-36.1
		c2.3-8.2,4.9-15.4,7.8-21.3c1.1-0.2,2.3-0.3,3.6-0.3l21.7,0.9c15,0.6,10.5,12.6,10.7,15.3c-0.4,4.3-0.6,8.7-0.7,13.1v0.1
		c-0.2,7.4,0.1,14.8,0.5,21.7c0.1,1.1,0.1,2.1,0.2,3.1C123.9,121.7,131.8,168.5,131.8,168.5z"/>
        <path class="st2" d="M108.1,284.1c-0.6,0-1.2,0.4-1.4,1c-0.7,2-2.6,4.6-2.7,5.9c-0.1,1.5,11.7,2.4,17.8,1.8
		c3.3-0.3-6.9-2.9-8.9-4.3c-1.3-0.9-2.4-2.7-3-3.7c-0.3-0.5-0.8-0.8-1.3-0.8H108.1z"/>
        <path class="st2" d="M83.8,284.1c-0.8,0-1.4,0.5-1.6,1.3c-0.5,2-1.7,4.4-1.7,5.6c-0.1,1.5,9.8,2.4,15,1.8c2.8-0.3-5.8-2.9-7.5-4.3
		c-1.1-0.9-1.9-2.5-2.4-3.5c-0.3-0.6-0.9-0.9-1.5-0.9H83.8z"/>
        <path class="st1" d="M128.3,113.9c2.4-2,8.3-7.9,11.3-10.9c1.8-1.8,2.1-4.6,0.6-6.6c-0.1-0.2-0.3-0.4-0.5-0.5
		c-1.3-1.3-2.1,0-3.4,0.9c-6.2,4.1-18.7,9.8-24.9,11.5c-6.5,1.8-8.6,6.4-4,13.1C110.1,125.1,121.3,119.7,128.3,113.9z"/>
        <path class="st3" d="M87.2,58.2c-2.9,6-5.5,13.2-7.8,21.3c-3,10.5-5.4,22.7-7.3,36.1c-0.1-1.2-0.2-2.4-0.3-3.7c0-0.1,0-0.2,0-0.3
		c-1.1-15-1.3-30.6,1.3-39.5c0.3-0.8,0.5-1.5,0.8-2.2C76.4,64.1,81.1,59.3,87.2,58.2z"/>
        <path class="st0" d="M71.8,111.6c0,0.1,0,0.2,0,0.3l6.5-2.9l3.4-39.5l-8.5,2.6C70.5,81,70.7,96.6,71.8,111.6z"/>
        <path class="st0" d="M71.8,111.6c0.3,4.3-0.5,9.9-0.9,13.9c1.7-0.8,5.3-2.9,6.8-3.8c1.7-1,4.8-3.3,7.7-5.5l6.4-4.8
		c-0.2,0.7-0.1,1.2,0.3,1.4v0c0.2,0.2,0.6,0.2,0.9,0.2l28.6-3c0.7-0.1,1.1-0.6,1.4-1.2c-0.5-6.9-0.7-14.3-0.5-21.7v-0.1l-25.9,12
		c-0.3,0.1-0.5,0.1-0.8,0.2c-2.3,0.6-3.9,3.3-5.3,5.4c-0.7,0-1.4,0.7-2.4,1.1C84,107.9,77.6,110,71.8,111.6z"/>
        <path class="st4" d="M108.8,58.7c-0.8,3.2-3.6,5.3-7.4,5.2c-3.9-0.2-9.4-2.6-11.9-6L108.8,58.7z"/>
        <path class="st5" d="M117.6,18.9c7.3,6.2,1.5,27.1-1.7,26.8l-6.7-4.7C104.1,40.2,105.7,8.7,117.6,18.9z"/>
        <path class="st4" d="M108,58.9c-1.5-7.4,0.2-15.4,1.6-22.1c0.9-4.2-1.6-8.4-5.9-9.3c-4.7-1-9.5,2-10.4,6.4
		c-0.5,2.2-5.9,9.3-2.6,24.7"/>
        <path class="st6" d="M119,35.3c-0.4,12.1-6.8,22-16.5,21.9c-9.7,0-17.2-9.9-16.8-22c0.4-12.1,8.5-21.9,18.2-21.8
		C113.6,13.5,119.4,23.2,119,35.3z"/>
        <path class="st5" d="M86.2,34.4C82,36.9,80.5,9.5,91,14.2C99.6,18.1,91.4,35.2,86.2,34.4"/>
        <path class="st7" d="M85.8,33.2"/>
        <path class="st5" d="M97.8,26.1c14.5,10,22.4,1.2,27.1-4.2c0,0-2.3,0-4.5-1.7c0,0,2.3-1.3,4.9-2.8c0,0-2.7-0.6-5.4-2.1
		c0,0-1.3,0.1,2.1-1.7c0,0-6.9-3.5-16.1-5.7c-6.2-1.5-21.9-2.2-19.3,7.4c0.2,0.8,0.5,1.5,0.8,2.2C89.4,21.4,92.6,22.5,97.8,26.1z"/>
        <path class="st5" d="M91.2,29.7c-0.2,4.7,1.6,14.3,16.1,16c9.2,1.1,11.5-4.7,11.5-4.7S118,57.4,104,57.7C90,58,80.6,43.5,89.1,31.6
		"/>
        <path class="st6" d="M89.1,33.4c0.9,3.7,0.1,7-1.9,7.5c-2,0.5-4.3-2-5.2-5.7c-0.9-3.7-0.1-7,1.9-7.5C85.8,27.2,88.1,29.8,89.1,33.4
		z"/>
        <path class="st8" d="M144.1,59.6c0,0.4-0.1,0.7-0.1,1.1l-8.9,42.7c-0.4,2-1.6,3.6-2.6,3.7l-37.7,2.2c-0.4,0-0.7-0.2-0.9-0.5l0,0
		c-0.4-0.6-0.4-1.7-0.2-2.9l8.9-42.7c0.4-1.9,1.6-3.6,2.6-3.6l37.7-2.2C143.6,57.2,144.1,58.2,144.1,59.6z"/>
        <path class="st6" d="M98.6,93.8c-3.4,0.7-5.9,5.9-7.7,7.4c-2.2,1.9,0.2,3.6,3.3,4.1c2.7,0.5,6.5,0.1,8.2-1.2
		c1.4-1.1,3.2-2.4,4.7-6.8C108.3,93.7,103,92.9,98.6,93.8z"/>
        <path class="st6" d="M138.5,91.5c-3.4,0.7-5.9,5.9-7.7,7.4c-2.2,1.9,0.2,3.6,3.3,4.1c2.7,0.5,2.1,2.1,3.8,0.7
		c1.4-1.1,3.2-2.4,4.7-6.8C144,93.3,143,90.6,138.5,91.5z"/>
        <path class="st1" d="M55.8,112.1c0-0.2,0-0.4,0-0.5c0.3-4.3,2.3-9.9,3.8-14.3c2.4-6.9,5.9-18.2,13-31.3c3.4-6.3,8.3-8.3,16.5-8
		c3.2,0.1-4.7,14.9-6.5,19c-1.9,4.3-4.8,12.2-9.7,24.3c-0.4,1.1-0.9,2.3-1.4,3.5c6.5-1.2,14.1-3.1,18.8-4.9c1.5-0.6,2.4-1.6,3.5-0.2
		c2.4,2.9,0.8,5.8,0.8,5.8s-12,7.4-15.8,9.4c-8.1,4.3-20.2,7.1-21.9,2.9c-0.2-0.5-0.4-0.9-0.5-1.4C55.9,115.2,55.8,113.7,55.8,112.1
		z"/>
        <g>
		<g>
			<g>
				<path class="st9" d="M130.2,84.3c0.5-0.5,0.8-1.2,1-1.8c0.2-0.9,0-1.7-0.5-2.3c0.2-0.4,0.4-0.7,0.5-1.1c0.3-1.2-0.1-2.3-1-2.8
					c0.5-1.3-0.1-2.4-1.2-2.7c-0.2-1.1-1.1-1.9-2.2-1.9c-1.1,0-2.2,0.6-2.9,1.5c-0.3-0.9-1.1-1.5-2.1-1.5c-1.1,0-2.4,0.8-3.2,1.9
					c-1.3,0.3-2.4,1.5-2.6,2.7c-1.1,0.5-2.1,1.6-2.4,2.8c-0.1,0.4-0.1,0.7-0.1,1.1c-0.8,0.6-1.4,1.4-1.6,2.3
					c-0.1,0.6-0.1,1.3,0.1,1.8c-0.5,0.5-0.8,1.1-1,1.7c-0.2,0.8-0.1,1.5,0.4,2.1c-0.7,1.7,0.2,3.5,2,3.5c0,0,0,0,0,0
					c0.3,1,1.3,1.7,2.5,1.7c1.2,0,2.5-0.7,3.4-1.8c0.3,1.1,1.2,1.8,2.5,1.8c1.2,0,2.5-0.7,3.3-1.7c0,0,0,0,0,0
					c1.6,0,3.3-1.4,3.7-3.1c0-0.1,0.1-0.3,0.1-0.4c0.7-0.6,1.2-1.3,1.4-2.1C130.5,85.4,130.4,84.8,130.2,84.3z M122.2,78.1
					c-0.2-0.1-0.5-0.2-0.8-0.2c-0.2,0-0.5,0.2-0.5,0.4c-0.1,0.2,0.1,0.4,0.3,0.4c0.5,0,0.7,0.4,0.6,0.8l-2,8
					c-0.4-0.7-1.2-1.1-2.2-1.1c-0.2,0-0.5,0.2-0.5,0.4c-0.1,0.2,0.1,0.4,0.3,0.4c1.4,0,2.2,1.1,1.9,2.5c-0.4,1.4-1.8,2.6-3.2,2.6
					c-1,0-1.7-0.6-1.9-1.5c0-0.2-0.2-0.3-0.4-0.2c0,0-0.1,0-0.1,0c-1.2,0.2-2.2-1.2-1.5-2.7c0.1-0.2,0.1-0.3,0-0.4
					c-0.4-0.4-0.5-1-0.4-1.6c0.1-0.4,0.3-0.8,0.6-1.1c0.4,0.4,1,0.7,1.6,0.7c0.2,0,0.5-0.2,0.5-0.4c0.1-0.2-0.1-0.4-0.3-0.4
					c-1.1,0-1.8-1-1.5-2.2c0.2-0.7,0.7-1.4,1.4-1.8c0.2-0.1,0.3-0.4,0.3-0.6c-0.1-0.3-0.1-0.7,0-1c0.3-1.1,1.5-2.2,2.7-2.2
					c1.1,0,1.8,1,1.5,2.2c-0.1,0.2,0.1,0.4,0.3,0.4c0.2,0,0.5-0.2,0.5-0.4c0.4-1.7-0.6-3.1-2.2-3.1c-0.1,0-0.3,0-0.4,0c0,0,0,0,0,0
					c0.2-0.9,1.2-1.7,2.1-1.7c0.4,0,0.8,0.2,1.1,0.5c0.1,0.2,0.4,0.2,0.6,0c0.2-0.2,0.3-0.4,0.1-0.6c-0.3-0.4-0.7-0.6-1.2-0.7
					c0.5-0.5,1.2-1,2-1c1.1,0,1.8,1,1.5,2.2L122.2,78.1z M127.5,85.6c0.7,0,1.3-0.2,2-0.7c0.1,0.3,0.1,0.7,0,1.1
					c-0.2,0.6-0.6,1.2-1.2,1.6c-0.1,0.1-0.2,0.3-0.2,0.4c0,0.2,0,0.3-0.1,0.5c-0.3,1.3-1.8,2.4-2.8,2.2c0,0-0.1,0-0.1,0
					c-0.2,0-0.4,0.1-0.5,0.2c-0.6,0.9-1.7,1.5-2.6,1.5c-1.4,0-2.2-1.2-1.9-2.6c0.3-1.4,1.8-2.5,3.1-2.5c0.2,0,0.5-0.2,0.5-0.4
					s-0.1-0.4-0.3-0.4c-1,0-2,0.4-2.8,1.1l2-8c0.1-0.5,0.6-0.8,1-0.8c0.2,0,0.5-0.2,0.5-0.4c0.1-0.2-0.1-0.4-0.3-0.4
					c-0.3,0-0.6,0.1-0.9,0.2l0.8-3.3c0.3-1.2,1.5-2.2,2.7-2.2c0.7,0,1.2,0.4,1.5,1c-0.5,0.1-1.1,0.3-1.6,0.7
					c-0.2,0.2-0.3,0.4-0.1,0.6c0.1,0.2,0.4,0.2,0.6,0c0.4-0.3,0.9-0.5,1.3-0.5c0.9,0,1.5,0.7,1.3,1.7c0,0,0,0,0,0
					c-0.1,0-0.3,0-0.4,0c-1.6,0-3.3,1.4-3.7,3.1c-0.1,0.2,0.1,0.4,0.3,0.4s0.5-0.2,0.5-0.4c0.3-1.2,1.5-2.2,2.7-2.2
					c1.2,0,1.8,1.1,1.5,2.2c-0.1,0.4-0.3,0.7-0.5,1c-0.2,0.2-0.2,0.4,0,0.6c0.5,0.4,0.7,1,0.5,1.8c-0.3,1.2-1.5,2.2-2.7,2.2
					c-0.2,0-0.5,0.2-0.5,0.4S127.3,85.6,127.5,85.6z"/>
			</g>
		</g>
            <g>
			<g>
				<path class="st9" d="M120.6,80.7c-0.1-0.2-0.4-0.2-0.6,0c-1.6,1.2-3.6,0.2-3.1-1.6c0.1-0.2-0.1-0.4-0.3-0.4s-0.5,0.2-0.5,0.4
					c-0.4,1.5,0.4,2.7,1.7,2.9c-0.3,0.5-0.9,0.9-1.4,0.9c-0.2,0-0.5,0.2-0.5,0.4s0.1,0.4,0.3,0.4c1,0,2.1-0.7,2.5-1.7
					c0.6-0.1,1.2-0.3,1.8-0.7C120.6,81.2,120.7,80.9,120.6,80.7z"/>
			</g>
		</g>
            <g>
			<g>
				<path class="st9" d="M114.3,88.1c-0.2,0-0.5,0.2-0.5,0.4s0.1,0.4,0.3,0.4c1.1,0,1.8,1,1.5,2.2c-0.1,0.2,0.1,0.4,0.3,0.4
					c0.2,0,0.5-0.2,0.5-0.4C116.9,89.5,115.9,88.1,114.3,88.1z"/>
			</g>
		</g>
            <g>
			<g>
				<path class="st9" d="M118.5,84.7c-1.4,0-2.8,0.8-3.8,1.9c-0.2,0.2-0.2,0.5,0,0.6c0.2,0.1,0.4,0,0.6-0.2c0.7-0.9,1.8-1.5,2.9-1.5
					c0.2,0,0.5-0.2,0.5-0.4C118.8,84.9,118.7,84.7,118.5,84.7z"/>
			</g>
		</g>
            <g>
			<g>
				<path class="st9" d="M126.5,82.9c-0.6,0-0.9-0.4-1-0.9c1.5-0.2,2.8-1.4,3.2-2.9c0.1-0.2-0.1-0.4-0.3-0.4c-0.2,0-0.5,0.2-0.5,0.4
					c-0.3,1.2-1.5,2.1-2.6,2.1c-0.5,0-1-0.2-1.3-0.5c-0.1-0.2-0.4-0.1-0.6,0c-0.2,0.2-0.2,0.4-0.1,0.6c0.3,0.4,0.8,0.6,1.4,0.7
					c-0.1,1,0.6,1.7,1.6,1.7c0.2,0,0.5-0.2,0.5-0.4C126.9,83.1,126.7,82.9,126.5,82.9z"/>
			</g>
		</g>
            <g>
			<g>
				<path class="st9" d="M126,88.1c-1.6,0-3.3,1.4-3.7,3.1c-0.1,0.2,0.1,0.4,0.3,0.4s0.5-0.2,0.5-0.4c0.3-1.2,1.5-2.2,2.7-2.2
					c0.2,0,0.5-0.2,0.5-0.4C126.4,88.3,126.3,88.1,126,88.1z"/>
			</g>
		</g>
            <g>
			<g>
				<path class="st9" d="M126.3,86.6c-0.4-1.1-1.4-1.9-2.8-1.9c-0.2,0-0.5,0.2-0.5,0.4s0.1,0.4,0.3,0.4c1.1,0,1.9,0.6,2.2,1.5
					c0.1,0.2,0.3,0.3,0.5,0.2C126.2,87.1,126.4,86.8,126.3,86.6z"/>
			</g>
		</g>
	</g>
</g>
</svg>
