<?xml version="1.0" standalone="no"?><!DOCTYPE svg PUBLIC "-//W3C//DTD SVG 1.1//EN" "http://www.w3.org/Graphics/SVG/1.1/DTD/svg11.dtd"><svg class="icon" height="512" viewBox="0 0 1024 1024" version="1.1" xmlns="http://www.w3.org/2000/svg"><path d="M630.170317 708.939548C564.343162 758.38961 482.516661 787.692308 393.846154 787.692308 176.330929 787.692308 0 611.361375 0 393.846154 0 176.330929 176.330929 0 393.846154 0 611.361375 0 787.692308 176.330929 787.692308 393.846154 787.692308 482.516661 758.38961 564.343162 708.939548 630.170317L1024 945.230769 945.230769 1024 630.170317 708.939548ZM393.846154 708.923077C567.858334 708.923077 708.923077 567.858334 708.923077 393.846154 708.923077 219.833974 567.858334 78.769231 393.846154 78.769231 219.833974 78.769231 78.769231 219.833974 78.769231 393.846154 78.769231 567.858334 219.833974 708.923077 393.846154 708.923077Z" /></svg>