<?xml version="1.0" encoding="utf-8"?>
<!-- Generator: Adobe Illustrator 23.0.0, SVG Export Plug-In . SVG Version: 6.00 Build 0)  -->
<svg version="1.1" id="Capa_1" xmlns="http://www.w3.org/2000/svg" xmlns:xlink="http://www.w3.org/1999/xlink" x="0px" y="0px"
	 viewBox="0 0 31.4 31.4" style="enable-background:new 0 0 31.4 31.4;" xml:space="preserve">
<style type="text/css">
	.st0{fill:#4180C2;}
</style>
<g>
	<g>
		<path class="st0" d="M15.7,0C7,0,0,7,0,15.7c0,8.6,7,15.7,15.7,15.7c8.6,0,15.7-7,15.7-15.7C31.4,7,24.3,0,15.7,0z M15.7,28.9
			c-7.3,0-13.2-5.9-13.2-13.2c0-7.3,5.9-13.2,13.2-13.2c7.3,0,13.2,5.9,13.2,13.2C28.9,22.9,22.9,28.9,15.7,28.9z"/>
		<path class="st0" d="M19.2,12.4v-5c0-0.9-0.7-1.6-1.6-1.6h-3.4c-0.9,0-1.6,0.7-1.6,1.6v5h-5c-0.9,0-1.6,0.7-1.6,1.6v3.5
			c0,0.9,0.7,1.6,1.6,1.6h5v5c0,0.9,0.7,1.6,1.6,1.6h3.4c0.9,0,1.6-0.7,1.6-1.6v-5h5c0.9,0,1.6-0.7,1.6-1.6v-3.5
			c0-0.9-0.7-1.6-1.6-1.6H19.2z"/>
	</g>
</g>
</svg>
