<svg xmlns="http://www.w3.org/2000/svg" viewBox="0 0 484.716 501.467">
    <defs>
        <style>
            .cls-1 {
            opacity: 0.15;
            }

            .cls-2 {
            fill: #fff;
            }
        </style>
    </defs>
    <g id="Group_37" data-name="Group 37" class="cls-1" transform="translate(484.712 0.004) rotate(90)">
        <path id="Path_62" data-name="Path 62" class="cls-2"
              d="M501.463,196.844c0-19.8-9.9-39.794-29.9-57.773,0-17.978-2.02-51.713-27.876-73.529C425.712,49.585,403.9,43.727,374,45.747c-6.06-13.938-15.958-27.876-33.734-35.754-25.856-13.938-57.773-13.938-95.547,4.04-35.754-9.9-93.527-9.9-123.221,39.794-17.978-2.02-41.814,0-61.611,15.958-15.958,13.938-21.816,33.734-19.8,59.591C24.132,139.274,4.335,155.232.3,181.088c-2.02,19.8,7.878,41.815,27.876,61.611C6.355,262.5-1.725,282.494.3,304.31c4.04,25.856,23.836,43.835,39.794,51.713-2.02,25.856,6.06,45.653,19.8,59.591,17.978,15.958,43.835,17.978,61.611,15.958,29.9,49.693,87.467,49.693,123.221,39.794,37.774,15.958,71.509,17.978,95.547,4.04,15.958-9.9,27.876-23.836,33.734-35.754,29.9,2.02,51.713-4.04,69.691-19.8,23.836-21.816,27.876-55.753,27.876-73.529,19.8-17.978,29.9-37.774,29.9-57.773v-4.04a69.172,69.172,0,0,0-19.8-41.814,68.078,68.078,0,0,0,19.8-41.814ZM443.691,310.168c-21.816-9.9-61.611-23.836-105.445-2.02-9.9,6.06-13.938,17.978-7.878,27.876s17.978,13.938,27.876,7.878c27.876-13.938,53.733-4.04,67.671,2.02,0,11.918-2.02,29.9-13.938,41.814-9.9,9.9-27.876,11.918-49.693,7.878a15.368,15.368,0,0,0-15.958,4.04c-4.04,4.04-7.878,7.878-7.878,13.938,0,0-4.04,17.978-17.978,25.856s-35.754,4.04-65.651-9.9c-4.04-2.02-9.9-2.02-15.958,0s-49.693,15.958-73.529-9.9c25.856-13.938,53.733-41.815,53.733-89.487v-2.02c0-11.918-9.9-21.816-21.816-19.8-11.918,0-19.8,9.9-19.8,21.816,2.02,47.673-41.814,59.591-47.673,59.591a74.28,74.28,0,0,1-16.685,1.818c-8.444,0-17.655-1.374-23.109-5.858-9.9-7.878-7.878-25.856-6.06-37.774,2.02-9.9-4.04-19.8-13.938-23.836-6.06-2.02-25.856-13.938-27.876-25.856-2.02-7.878,7.878-21.816,25.856-35.754H439.853l-.2,2.02c6.06,4.04,15.958,13.938,15.958,23.836C455.609,296.23,451.569,304.31,443.691,310.168Zm13.736-109.283c0,9.9-9.9,17.978-15.958,23.836H69.784c-17.978-13.938-27.876-25.856-25.856-35.754,2.02-11.918,19.8-21.816,27.876-25.856,9.9-4.04,13.938-13.938,13.938-23.836-4.04-11.918-6.06-29.9,2.02-37.774,4.04-4.04,13.938-6.06,21.816-6.06,0,11.918,2.02,25.856,7.878,41.814,11.918,21.816,31.916,37.774,59.591,47.673,11.918,4.04,23.836-2.02,25.856-13.938,0-2.02,2.02-4.04,2.02-6.06,0-9.9-6.06-17.978-13.938-19.8-45.653-15.958-41.814-47.673-37.774-57.773,19.8-47.673,79.589-29.9,85.447-27.876,6.06,2.02,9.9,2.02,15.958,0,27.876-17.574,51.713-21.614,65.651-13.736,4.04,2.02,6.06,4.04,9.9,7.878-19.8,7.878-43.835,25.856-57.773,67.671-4.04,11.918,2.02,23.836,13.938,27.876s23.836-2.02,27.876-13.938C328.347,91.6,356.224,91.6,360.062,91.6h4.04c23.836-4.04,39.794-2.02,49.693,7.878,13.938,13.938,13.938,41.814,13.938,49.693-2.02,7.878,2.02,15.958,7.878,19.8C445.509,176.846,459.447,188.764,457.427,200.885Z"
              transform="translate(0 0)"/>
    </g>
</svg>
